<?xml version="1.0" standalone="no"?>
<!DOCTYPE svg PUBLIC "-//W3C//DTD SVG 20010904//EN"
 "http://www.w3.org/TR/2001/REC-SVG-20010904/DTD/svg10.dtd">
<svg version="1.0" xmlns="http://www.w3.org/2000/svg"
 width="512.000000pt" height="512.000000pt" viewBox="0 0 512.000000 512.000000"
 preserveAspectRatio="xMidYMid meet">
<metadata>
Created by potrace 1.14, written by Peter Selinger 2001-2017
</metadata>
<g transform="translate(0.000000,512.000000) scale(0.100000,-0.100000)"
fill="#000000" stroke="none">
<path d="M1650 5092 l-31 -31 3 -255 c3 -229 5 -256 21 -274 37 -41 107 -36
135 9 12 18 17 233 12 500 0 36 -32 69 -74 76 -30 5 -40 1 -66 -25z"/>
<path d="M2503 5096 l-28 -24 -1 -252 c0 -221 2 -255 17 -280 35 -57 124 -46
145 18 6 20 10 128 9 273 l0 241 -28 24 c-36 31 -78 31 -114 0z"/>
<path d="M3355 5094 l-25 -27 0 -256 c1 -185 4 -260 13 -272 35 -46 101 -47
137 -2 19 24 20 40 20 267 0 132 -3 251 -6 263 -6 23 -59 53 -93 53 -12 0 -33
-12 -46 -26z"/>
<path d="M1257 4244 c-1 -1 -20 -5 -42 -8 -103 -16 -233 -112 -288 -214 -55
-101 -53 -61 -52 -1477 1 -1193 2 -1315 18 -1365 40 -134 152 -247 287 -288
50 -15 172 -16 1365 -17 1372 -1 1374 -1 1458 41 102 52 193 157 222 258 32
111 24 176 -24 199 -28 14 -33 15 -73 4 -33 -9 -47 -33 -55 -95 -3 -26 -11
-61 -18 -78 -20 -48 -80 -109 -133 -135 l-47 -23 -1315 0 -1315 1 -47 22 c-26
13 -64 41 -84 63 -73 81 -67 -32 -68 1428 l0 1315 23 47 c28 59 101 124 155
140 59 16 2614 16 2672 0 70 -20 153 -108 172 -182 2 -8 4 -472 6 -1030 1
-558 5 -1024 9 -1035 9 -26 55 -54 82 -49 37 6 65 28 73 58 5 17 8 488 7 1046
-1 918 -2 1020 -17 1070 -41 135 -153 247 -288 288 -50 15 -171 16 -1368 17
-722 0 -1314 0 -1315 -1z"/>
<path d="M43 3488 c-49 -24 -54 -112 -7 -143 20 -13 62 -16 273 -16 267 -1
280 1 301 52 15 35 4 75 -27 99 -24 19 -41 20 -272 19 -150 0 -254 -4 -268
-11z"/>
<path d="M4537 3480 c-45 -36 -44 -108 4 -138 27 -17 506 -20 538 -3 48 26 54
98 10 135 l-31 26 -247 0 c-233 0 -250 -1 -274 -20z"/>
<path d="M2394 3129 c-74 -12 -210 -57 -279 -91 -130 -66 -284 -191 -287 -234
-3 -41 13 -74 43 -90 44 -22 69 -13 157 61 149 125 309 185 512 190 106 3 139
0 218 -20 138 -35 265 -103 367 -195 48 -44 66 -51 105 -44 34 7 61 43 62 85
1 37 -56 98 -157 168 -117 81 -270 146 -393 167 -59 10 -292 12 -348 3z"/>
<path d="M2502 2689 c-115 -14 -210 -54 -298 -126 -23 -18 -47 -47 -54 -63
-33 -80 72 -150 137 -91 153 141 368 147 528 17 63 -52 122 -50 150 5 24 45
11 82 -43 127 -90 74 -190 119 -287 129 -27 2 -54 5 -60 7 -5 1 -39 -1 -73 -5z"/>
<path d="M28 2619 c-35 -35 -37 -78 -4 -116 l24 -28 247 -1 c205 0 253 3 278
15 56 29 61 105 10 138 -24 16 -56 18 -278 19 l-250 0 -27 -27z"/>
<path d="M4551 2634 c-38 -16 -54 -47 -46 -90 12 -65 28 -69 308 -69 l250 -1
28 27 c37 34 38 77 5 116 l-24 28 -246 1 c-173 0 -255 -3 -275 -12z"/>
<path d="M2512 2293 c-37 -7 -100 -77 -108 -117 -19 -105 54 -196 159 -196 49
0 97 27 131 73 16 21 21 43 21 86 -1 62 -22 104 -70 135 -27 17 -95 27 -133
19z"/>
<path d="M159 1790 c-127 -5 -144 -13 -155 -69 -4 -19 0 -40 12 -60 24 -40 46
-43 327 -39 l229 3 24 28 c13 15 24 37 24 47 0 30 -20 67 -44 79 -24 13 -238
19 -417 11z"/>
<path d="M4653 1790 c-112 -5 -137 -17 -149 -66 -9 -34 12 -74 46 -91 33 -17
488 -18 524 -2 52 24 58 112 10 144 -21 13 -55 17 -177 18 -84 1 -198 0 -254
-3z"/>
<path d="M1649 591 l-29 -29 0 -252 0 -252 29 -29 c58 -58 141 -20 141 65 4
303 0 466 -11 484 -30 48 -89 54 -130 13z"/>
<path d="M2514 602 c-12 -9 -26 -26 -31 -37 -6 -11 -9 -127 -9 -269 l1 -248
28 -24 c44 -38 102 -29 129 19 19 33 20 492 1 530 -23 46 -81 60 -119 29z"/>
<path d="M3375 608 c-43 -25 -44 -32 -45 -299 0 -292 1 -296 76 -306 36 -5 43
-2 68 27 l27 33 -3 253 c-3 238 -4 255 -23 273 -25 26 -74 35 -100 19z"/>
</g>
</svg>
